# xmcd
#
# Track frame offsets: 
#        150
#        2850
#        18090
#        32625
#        50790
#        64163
#        79876
#        96031
#        117511
#        132991
#        153376
#        171661
#
# Disc length: 2493 seconds
#
# Revision: 0
# Processed by: cddbd v1.5.2PL0 Copyright (c) Steve Scherf et al.
# Submitted via: ExactAudioCopy v1.0b4
#
DISCID=a009bb0c
DTITLE=Brutha White - Solitaire Man Blues
DYEAR=2016
DGENRE=Blues
TTITLE0=New Blues News Intro
TTITLE1=Chasing Jane
TTITLE2=PO Folks
TTITLE3=My House
TTITLE4=My Ole Lady
TTITLE5=Young Man Blues
TTITLE6=Solitaire Man
TTITLE7=Song to Myself
TTITLE8=Runnin'
TTITLE9=Simplify That
TTITLE10=Growin Pains
TTITLE11=On My Own
EXTD=
EXTT0=
EXTT1=
EXTT2=
EXTT3=
EXTT4=
EXTT5=
EXTT6=
EXTT7=
EXTT8=
EXTT9=
EXTT10=
EXTT11=
PLAYORDER=
